<svg xmlns="http://www.w3.org/2000/svg" xmlns:xlink="http://www.w3.org/1999/xlink" width="886.001" height="840.188" viewBox="0 0 886.001 840.188">
  <defs>
    <clipPath id="clip-path">
      <circle id="Ellipse_25" data-name="Ellipse 25" cx="85" cy="85" r="85" transform="translate(1448 268)" fill="#17223e"/>
    </clipPath>
  </defs>
  <g id="Group_20" data-name="Group 20" transform="translate(-202.999 -2699)">
    <path id="Exclusion_19" data-name="Exclusion 19" d="M-18682.4,464.189a407.006,407.006,0,0,1-40.959-2.068,401.63,401.63,0,0,1-39.775-6.07c-12.906-2.641-25.822-5.962-38.391-9.871-12.428-3.865-24.811-8.4-36.807-13.471a400.611,400.611,0,0,1-68.047-36.934,403.44,403.44,0,0,1-59.287-48.916,403.374,403.374,0,0,1-48.916-59.286,400.39,400.39,0,0,1-36.934-68.046c-5.072-11.985-9.6-24.368-13.473-36.8-3.9-12.555-7.227-25.471-9.871-38.391a401.826,401.826,0,0,1-6.07-39.775A406.843,406.843,0,0,1-19083,63.6a406.845,406.845,0,0,1,2.066-40.958,401.837,401.837,0,0,1,6.07-39.775c2.645-12.919,5.967-25.836,9.871-38.391,3.869-12.437,8.4-24.82,13.473-36.805a400.382,400.382,0,0,1,36.934-68.047,403.383,403.383,0,0,1,48.916-59.287,403.447,403.447,0,0,1,59.287-48.917,400.637,400.637,0,0,1,68.047-36.935c12-5.074,24.381-9.606,36.807-13.471,12.57-3.91,25.486-7.231,38.391-9.871a401.507,401.507,0,0,1,39.775-6.07A407.035,407.035,0,0,1-18682.4-337a407.035,407.035,0,0,1,40.959,2.068,401.682,401.682,0,0,1,39.775,6.07c12.908,2.642,25.824,5.963,38.391,9.871,12.428,3.865,24.811,8.4,36.8,13.471a400.494,400.494,0,0,1,68.045,36.935,403.418,403.418,0,0,1,59.287,48.917,403.383,403.383,0,0,1,48.916,59.287,400.373,400.373,0,0,1,36.934,68.047c5.072,11.986,9.6,24.369,13.473,36.805,3.9,12.555,7.227,25.472,9.871,38.391a402.3,402.3,0,0,1,6.072,39.775,407.42,407.42,0,0,1,2.066,40.958,407.418,407.418,0,0,1-2.066,40.958,402.291,402.291,0,0,1-6.072,39.775c-2.645,12.92-5.967,25.836-9.871,38.391-3.869,12.436-8.4,24.819-13.473,36.8a400.359,400.359,0,0,1-36.934,68.046,403.374,403.374,0,0,1-48.916,59.286,403.411,403.411,0,0,1-59.287,48.916,400.541,400.541,0,0,1-68.045,36.934c-11.994,5.073-24.377,9.605-36.8,13.471-12.564,3.908-25.48,7.229-38.391,9.871a401.806,401.806,0,0,1-39.775,6.07A407.006,407.006,0,0,1-18682.4,464.189ZM-18677-209c-9.455,0-18.822.431-27.842,1.281a265.1,265.1,0,0,0-26.531,3.844,242.507,242.507,0,0,0-25.221,6.407,229.348,229.348,0,0,0-23.906,8.97,241.811,241.811,0,0,0-22.344,11.249,225.51,225.51,0,0,0-20.529,13.25,217.7,217.7,0,0,0-18.719,15.25A218.286,218.286,0,0,0-18859-131.5a241.591,241.591,0,0,0-15.094,19.095c-4.705,6.612-9.176,13.6-13.283,20.782s-7.967,14.741-11.469,22.469S-18905.6-53.3-18908.5-45s-5.479,16.919-7.654,25.625-4.016,17.751-5.469,26.875-2.555,18.582-3.281,28.125S-18926,55.053-18926,65a398.5,398.5,0,0,0,4,57.376c1.328,9.089,3.01,18.078,5,26.719s4.342,17.184,7,25.405,5.691,16.251,9.029,23.908a239.226,239.226,0,0,0,11.1,22.219,225.867,225.867,0,0,0,13.156,20.531A221.267,221.267,0,0,0-18861.5,260a214.718,214.718,0,0,0,17.186,17,216.769,216.769,0,0,0,19.063,15,227.433,227.433,0,0,0,20.938,13,246.505,246.505,0,0,0,22.813,11,229.983,229.983,0,0,0,24.719,8.75,261.969,261.969,0,0,0,26.656,6.25c9.168,1.659,18.787,2.921,28.594,3.75s20.082,1.25,30.533,1.25a361.1,361.1,0,0,0,41.5-2.5c14.242-1.656,27.869-3.675,40.5-6a323.8,323.8,0,0,0,34-8c9.957-2.99,17.7-6.186,23-9.5l-13-78a168.431,168.431,0,0,1-20.25,7.751c-7.793,2.488-16.793,4.926-26.748,7.248a258.451,258.451,0,0,1-31.752,5.252A341.11,341.11,0,0,1-18659,254a250.828,250.828,0,0,1-42.5-3.376A163.231,163.231,0,0,1-18737,240.5a143.582,143.582,0,0,1-29.123-16.375A128.594,128.594,0,0,1-18789.5,202a147.212,147.212,0,0,1-17.75-27.5,175.57,175.57,0,0,1-12.25-32.5,264.107,264.107,0,0,1-7.125-36.749A330.162,330.162,0,0,1-18829,65a357.194,357.194,0,0,1,2.592-44.188,251.005,251.005,0,0,1,7.783-38.563,182.981,182.981,0,0,1,12.971-32.938A145.79,145.79,0,0,1-18787.5-78a131.391,131.391,0,0,1,23.029-21.437,132.6,132.6,0,0,1,27.594-15.312,157.712,157.712,0,0,1,32.156-9.187A210.692,210.692,0,0,1-18668-127a296.414,296.414,0,0,1,30.123,1.5,256.729,256.729,0,0,1,28.377,4.5,259.313,259.313,0,0,1,25.873,7,194.977,194.977,0,0,1,22.623,9l21-79a317.768,317.768,0,0,0-32.748-11.249A330.847,330.847,0,0,0-18607-203c-11.615-1.99-23.393-3.5-35-4.5S-18665.391-209-18677-209Z" transform="translate(19286 3075)" fill="#ac2f41"/>
    <g id="Mask_Group_9" data-name="Mask Group 9" transform="translate(-529 2431)" clip-path="url(#clip-path)">
      <path id="Exclusion_16" data-name="Exclusion 16" d="M85.1,170.2a86.456,86.456,0,0,1-8.7-.439,85.315,85.315,0,0,1-8.449-1.29c-2.741-.561-5.485-1.266-8.155-2.1-2.64-.821-5.271-1.784-7.818-2.862A85.349,85.349,0,0,1,6.688,118.222c-1.078-2.546-2.04-5.177-2.862-7.819-.83-2.668-1.536-5.412-2.1-8.155A85.327,85.327,0,0,1,.439,93.8,86.551,86.551,0,0,1,0,85.1,85.207,85.207,0,0,1,3.42,61.138c1.923,6.88,4.019,13.728,6.229,20.354s4.6,13.219,7.092,19.587c2.8,7.154,5.593,14.016,8.291,20.4,2.7,6.394,5.4,12.5,8.009,18.148h13.49c2.613-5.654,5.309-11.76,8.01-18.148,2.708-6.4,5.5-13.266,8.291-20.4s5.452-14.542,7.889-22,4.728-15.187,6.805-22.965H62.109c-1.277,5.214-2.816,10.861-4.576,16.782-1.755,5.9-3.646,11.845-5.622,17.666C49.928,96.4,47.9,102.1,45.889,107.5c-2.02,5.422-3.965,10.339-5.782,14.614-1.819-4.283-3.764-9.2-5.781-14.614-2.037-5.47-4.063-11.171-6.023-16.943-1.978-5.83-3.869-11.774-5.62-17.666S19.389,61.351,18.1,56.112H5.064A85.007,85.007,0,0,1,85.1,0a86.429,86.429,0,0,1,9.316.5,85.049,85.049,0,0,1,54.08,27.825H136.466c-2.558,2.558-5.145,5.314-7.689,8.191s-5.119,5.958-7.648,9.154-5.016,6.464-7.388,9.716-4.691,6.569-6.905,9.876c-4.429,6.618-8.455,13.129-11.964,19.352a178.9,178.9,0,0,0-8.352,16.462V111.2H136.3v28.426h14.132a85.4,85.4,0,0,1-28.678,22.294A84.553,84.553,0,0,1,94.8,169.649,86.37,86.37,0,0,1,85.1,170.2Zm65.661-30.573h-.323l.322-.388v.388Zm0-.388V111.2h13.168V98.991H150.759V30.961h0c-.739-.9-1.5-1.781-2.264-2.632h2.264V30.96h0a85.018,85.018,0,0,1,14.272,24.873,84.752,84.752,0,0,1,3.836,14.2c.437,2.446.771,4.949.992,7.439.224,2.521.337,5.087.337,7.627s-.114,5.106-.337,7.627c-.222,2.49-.556,4.993-.992,7.439a84.849,84.849,0,0,1-18.108,39.071ZM136.3,98.991H100.974c2.128-4.577,4.587-9.332,7.307-14.133s5.663-9.551,8.753-14.133,6.3-9.038,9.555-13.249,6.518-8.071,9.716-11.483v53h0ZM3.419,61.138h0c-.456-1.629-.917-3.32-1.373-5.025H5.064c-.6,1.647-1.15,3.338-1.644,5.025Z" transform="translate(1447.787 267.788)" fill="#2dcc70"/>
    </g>
  </g>
</svg>
